<svg xmlns="http://www.w3.org/2000/svg" xmlns:xlink="http://www.w3.org/1999/xlink" width="500" zoomAndPan="magnify" viewBox="0 0 375 374.999991" height="500" preserveAspectRatio="xMidYMid meet" version="1.0"><defs><clipPath id="636e25e1bf"><path d="M 113 140 L 259 140 L 259 231.515625 L 113 231.515625 Z M 113 140 " clip-rule="nonzero"/></clipPath><clipPath id="5ce7f5dc1f"><path d="M 114 108 L 262.5 108 L 262.5 230 L 114 230 Z M 114 108 " clip-rule="nonzero"/></clipPath><clipPath id="13158f4206"><path d="M 44.300781 168 L 79.550781 168 L 79.550781 203.25 L 44.300781 203.25 Z M 44.300781 168 " clip-rule="nonzero"/></clipPath><clipPath id="20ea79e796"><path d="M 295.5 168 L 330.75 168 L 330.75 203.25 L 295.5 203.25 Z M 295.5 168 " clip-rule="nonzero"/></clipPath></defs><g clip-path="url(#636e25e1bf)"><path fill="#297ed5" d="M 126.96875 198.273438 C 125.214844 194.535156 130.402344 188.488281 132.207031 185.265625 C 134.839844 180.902344 137.832031 176.773438 141.429688 173.152344 C 143.917969 170.476562 146.613281 167.832031 149.570312 165.730469 C 146.871094 160.878906 153.105469 158.1875 155.980469 155.457031 C 157.683594 154.023438 159.519531 152.75 161.371094 151.515625 C 162.96875 150.347656 164.847656 149.78125 166.335938 151.453125 C 171.785156 148.964844 177.574219 147.507812 183.453125 146.433594 C 186.851562 145.746094 190.050781 144.371094 193.453125 143.691406 C 197.15625 143.070312 200.835938 142.316406 204.542969 141.726562 C 207.828125 141.246094 211.160156 141.226562 214.457031 140.816406 C 223.195312 139.167969 230.613281 141.242188 234.078125 150.109375 C 235.691406 154.867188 236.230469 159.933594 236.945312 164.886719 C 238.058594 169.332031 234.625 170.839844 230.972656 171.707031 C 228.128906 172.515625 223.695312 174.695312 221.816406 171.222656 C 220.609375 168.945312 219.308594 166.46875 217.128906 164.988281 C 212.203125 162.296875 206.554688 161.335938 201.023438 162.320312 C 197.515625 162.71875 194.3125 164.339844 191.066406 165.621094 C 187.027344 167.429688 183.0625 169.460938 178.898438 170.941406 C 171.902344 173.050781 168.074219 175.855469 164.457031 182.289062 C 163.402344 184.46875 164.195312 186.929688 163.703125 189.226562 C 163.304688 191.550781 162.183594 193.675781 161.125 195.761719 C 160.125 197.910156 158.1875 199.359375 156.066406 200.296875 C 153.335938 201.804688 150.226562 202.226562 147.191406 202.699219 C 143.25 203.179688 139.308594 203.90625 135.335938 203.949219 C 132.46875 203.816406 123.390625 202.820312 126.96875 198.273438 Z M 255.199219 190.652344 C 251.757812 190.144531 248.34375 191.535156 245.046875 192.359375 C 240.53125 193.574219 235.546875 193.105469 231.378906 195.527344 C 227.992188 197.535156 224.71875 199.722656 221.390625 201.824219 C 219.046875 203.148438 217.089844 205.132812 214.484375 205.960938 C 211.0625 207.453125 207.367188 207.804688 203.773438 208.625 C 200.703125 209.589844 197.597656 210.429688 194.519531 211.367188 C 191.9375 211.6875 189.445312 212.390625 186.890625 212.851562 C 184.757812 213.027344 182.667969 213.554688 180.523438 213.589844 C 176.089844 213.683594 171.65625 213.335938 167.230469 213.445312 C 160.003906 213.777344 152.957031 215.546875 145.746094 215.960938 C 138.34375 216.144531 130.929688 215.3125 123.539062 216.070312 C 121.253906 216.425781 118.671875 216.132812 116.613281 217.3125 C 115.597656 218.0625 115.414062 219.125 114.9375 220.328125 C 112.542969 221.558594 113.871094 226.421875 114.230469 228.59375 C 114.558594 230.839844 117.25 230.773438 119.003906 231.078125 C 122.820312 231.515625 126.664062 231.007812 130.484375 230.796875 C 133.9375 230.328125 137.394531 229.765625 140.894531 229.945312 C 146.316406 229.917969 151.738281 230.019531 157.160156 230.042969 C 161.617188 230.089844 165.933594 228.867188 170.3125 228.21875 C 180.261719 226.789062 190.550781 228.699219 200.277344 225.648438 C 204.15625 224.449219 208.132812 223.421875 211.878906 221.839844 C 214.441406 220.652344 216.816406 219.097656 219.03125 217.34375 C 222.601562 214.933594 225.914062 212.210938 229.269531 209.515625 C 232.53125 207.308594 235.695312 204.894531 239.21875 203.113281 C 242.941406 201.449219 246.960938 200.425781 250.964844 199.730469 C 252.75 199.273438 254.792969 199.460938 256.421875 198.554688 C 259.648438 196.03125 259.40625 191.730469 255.199219 190.652344 Z M 177.546875 187.804688 C 176.820312 187.355469 176.644531 186.351562 176.839844 185.566406 C 175.886719 181.722656 180.140625 179.601562 183.019531 178.257812 C 185.914062 176.722656 188.925781 175.382812 192.152344 174.71875 C 194.960938 174.464844 201.382812 171.160156 202.957031 174.628906 C 204.640625 175.417969 204.664062 177.65625 204.527344 179.261719 C 206.074219 181.390625 205.339844 185.835938 204.441406 188.179688 C 203.3125 191.105469 199.859375 191.117188 197.210938 191.1875 C 193.671875 191.519531 190.160156 192.078125 186.648438 192.625 C 184.46875 192.941406 182.207031 194.113281 180.019531 193.328125 C 179.464844 193.113281 179.101562 192.671875 178.839844 192.171875 C 177.25 191.761719 177.304688 189.125 177.546875 187.804688 Z M 194.375 187.421875 C 196.570312 186.863281 198.84375 186.789062 201.054688 186.363281 C 200.867188 186.195312 200.734375 185.960938 200.644531 185.726562 C 200.585938 185.5625 200.542969 185.390625 200.519531 185.21875 C 200.496094 185.226562 200.46875 185.234375 200.445312 185.242188 C 199.371094 185.574219 198.3125 185.960938 197.253906 186.339844 C 196.289062 186.683594 195.335938 187.058594 194.375 187.421875 Z M 181.015625 188.082031 C 181.097656 188.320312 181.183594 188.558594 181.277344 188.789062 C 181.277344 188.792969 181.277344 188.792969 181.277344 188.792969 C 182.308594 189.289062 183.515625 188.929688 184.605469 188.828125 C 186.6875 188.515625 188.800781 188.4375 190.878906 188.082031 C 190.746094 187.917969 190.683594 187.667969 190.664062 187.488281 C 190.636719 187.253906 190.660156 187 190.730469 186.765625 C 187.507812 187.308594 184.253906 187.652344 181.015625 188.082031 Z M 239.40625 154.121094 C 242.960938 154.820312 243.160156 149.921875 241.335938 149.871094 C 240.132812 150.394531 239.230469 149.382812 238.417969 150.035156 C 237.039062 151.324219 237.195312 153.972656 239.40625 154.121094 Z M 238.050781 157.652344 C 237.757812 158.066406 237.597656 158.578125 237.546875 159.082031 C 237.476562 159.789062 237.664062 160.964844 238.585938 160.964844 C 238.964844 160.964844 239.300781 160.625 239.5 160.339844 C 239.796875 159.925781 239.957031 159.414062 240.007812 158.914062 C 240.074219 158.207031 239.886719 157.03125 238.96875 157.03125 C 238.589844 157.03125 238.253906 157.367188 238.050781 157.652344 Z M 238.050781 157.652344 " fill-opacity="1" fill-rule="nonzero"/></g><g clip-path="url(#5ce7f5dc1f)"><path fill="#0e1111" d="M 256.996094 189.6875 C 256.085938 189.839844 255.179688 190.035156 254.261719 190.109375 C 253.644531 190.179688 252.894531 190.136719 252.160156 190.160156 C 251.988281 188.824219 251.457031 187.492188 251.230469 186.1875 C 250.355469 182.976562 249.859375 179.652344 248.65625 176.539062 C 248.105469 175.164062 247.195312 173.980469 246.328125 172.796875 C 245.289062 171.265625 244.5625 169.558594 243.5625 168.007812 C 242.667969 166.308594 242.800781 164.34375 242.222656 162.546875 C 241.5 158.519531 243.394531 154.535156 245.066406 150.96875 C 246.628906 148.820312 248.925781 147.601562 247.621094 144.492188 C 247.554688 142.980469 242.484375 141.875 237.34375 141.402344 C 237.695312 140.328125 237.824219 139.183594 237.757812 138.054688 C 242.890625 137.316406 247.152344 132.574219 247.230469 127.359375 C 253.375 125.179688 257.851562 115.65625 252.980469 110.34375 C 248.144531 104.765625 246.480469 113.394531 249.542969 113.324219 C 250.558594 113.691406 252.023438 115.75 251.734375 116.839844 C 251.191406 119.6875 249.53125 122.703125 246.617188 123.613281 C 245.726562 120.25 242.921875 117.433594 239.339844 117.285156 C 237.46875 117.238281 236.089844 118.925781 235.613281 120.59375 C 233.765625 126.394531 240.695312 129.324219 245.390625 127.898438 C 245.347656 130.125 243.539062 131.925781 241.765625 133.046875 C 240.238281 133.816406 238.496094 134.03125 236.820312 134.234375 C 235.984375 132.066406 233.914062 130.476562 231.542969 130.632812 C 229.699219 131.222656 229.417969 133.964844 230.332031 135.449219 C 231.398438 136.929688 233.3125 137.589844 235.003906 138.066406 C 235.136719 138.769531 235.429688 139.917969 234.730469 140.371094 C 234.390625 140.550781 234.136719 140.839844 233.964844 141.183594 C 230.285156 141.046875 227.171875 141.292969 226.671875 142.011719 C 226.652344 142.027344 226.632812 142.046875 226.617188 142.0625 C 225.164062 141.980469 223.382812 142.371094 222.28125 142.351562 C 219.441406 142.621094 216.570312 142.449219 213.785156 143.148438 C 206.738281 144.300781 199.84375 146.164062 192.855469 147.554688 C 187.046875 148.054688 181.226562 148.585938 175.644531 150.402344 C 173.367188 151.101562 171.175781 152.039062 169.050781 153.117188 C 168.707031 152.140625 167.933594 151.253906 167.144531 150.628906 C 165.785156 149.359375 163.96875 150.527344 162.488281 150.953125 C 160.039062 151.957031 157.585938 152.949219 155.265625 154.234375 C 152.058594 155.898438 153.542969 158.785156 155.25 160.960938 C 155.417969 161.269531 155.550781 161.601562 155.679688 161.9375 C 154.179688 162.894531 152.753906 163.972656 151.554688 165.300781 C 149.269531 167.636719 147.453125 170.351562 145.441406 172.917969 C 142.597656 176.035156 140.089844 179.414062 137.453125 182.703125 C 135.679688 184.839844 134.039062 187.089844 132.148438 189.125 C 130.238281 190.800781 128.355469 192.519531 126.601562 194.351562 C 125.914062 195.285156 125.566406 196.320312 125.511719 197.347656 C 124.652344 198.96875 124.085938 200.765625 123.238281 202.390625 C 121.21875 206.078125 118.785156 209.53125 117.273438 213.484375 C 116.730469 214.917969 115.597656 216.835938 115.273438 218.621094 C 115.128906 218.703125 115 218.820312 114.902344 218.96875 C 114.050781 220.03125 114.3125 221.464844 114.398438 222.726562 C 114.007812 227.507812 114.417969 229.140625 119.640625 229.082031 C 121.941406 229.140625 124.234375 228.886719 126.53125 228.820312 C 128.738281 228.742188 130.953125 228.972656 133.15625 228.824219 C 135.363281 228.679688 137.496094 228.039062 139.679688 227.75 C 143.542969 227.242188 147.492188 227.351562 151.363281 227.714844 C 154.605469 228.128906 157.855469 228.785156 161.132812 228.421875 C 165.070312 227.972656 169.03125 227.972656 172.960938 227.472656 C 177.222656 227.316406 181.503906 227.664062 185.738281 226.996094 C 193.910156 225.828125 201.925781 223.730469 209.949219 221.804688 C 212.527344 220.976562 215.238281 220.296875 217.425781 218.625 C 222.101562 215.097656 226.054688 210.734375 230.804688 207.292969 C 235.84375 204.4375 240.941406 200.910156 246.882812 200.511719 C 249.5 200.21875 252.140625 200.246094 254.769531 200.132812 C 259.039062 200.144531 260.648438 200.328125 261.628906 195.570312 C 262.464844 190.828125 262.433594 188.757812 256.996094 189.6875 Z M 238.898438 122.113281 C 240.71875 121.984375 242.796875 122.570312 243.96875 124.046875 C 242.152344 123.945312 240.253906 123.371094 238.898438 122.113281 Z M 163.058594 154.863281 C 164.554688 154.324219 165.558594 153.589844 166.492188 154.496094 C 165.175781 155.242188 163.882812 156.027344 162.605469 156.824219 C 161.492188 157.496094 159.214844 158.753906 157.914062 160.023438 C 157.660156 159.269531 157.382812 158.519531 156.976562 157.832031 C 158.925781 156.679688 161.019531 155.832031 163.058594 154.863281 Z M 136.65625 187.371094 C 139.625 183.671875 143.132812 180.453125 146.234375 176.875 C 147.21875 175.65625 148.171875 174.410156 149.144531 173.183594 C 148.945312 174.046875 148.757812 174.769531 148.550781 175.089844 C 147.667969 177.25 146.722656 179.398438 145.511719 181.390625 C 144.464844 183.054688 143.375 184.699219 142.082031 186.179688 C 141.207031 187.148438 140.308594 187.894531 139.363281 188.820312 C 138.65625 189.734375 138.496094 191.847656 139.828125 192.253906 C 141.832031 191.578125 143.9375 188.523438 145.261719 186.839844 C 148.140625 182.964844 150.511719 178.621094 151.6875 173.917969 C 151.8125 172.511719 152.710938 170.804688 152.421875 169.386719 C 152.636719 169.164062 152.855469 168.941406 153.082031 168.722656 C 154.523438 167.226562 156.328125 166.1875 157.949219 164.921875 C 158.011719 164.953125 158.074219 164.984375 158.140625 165.011719 C 159.40625 165.121094 160.128906 163.601562 161.023438 162.890625 C 162.335938 161.671875 163.792969 160.613281 165.191406 159.496094 C 168.777344 157.132812 172.988281 156.109375 177.113281 155.074219 C 181.246094 154.074219 185.128906 152.222656 189.253906 151.222656 C 192.625 150.570312 196.003906 149.941406 199.394531 149.402344 C 202.136719 149.175781 204.882812 148.929688 207.574219 148.328125 C 211.285156 147.636719 215.027344 146.777344 218.816406 146.800781 C 221.355469 146.859375 223.863281 146.414062 226.382812 146.230469 C 226.5625 146.246094 226.730469 146.257812 226.890625 146.265625 C 226.964844 146.441406 227.046875 146.609375 227.144531 146.765625 C 229.703125 150.78125 231.828125 155.109375 233.453125 159.589844 C 234.324219 161.90625 234.363281 164.753906 235.324219 167.117188 C 231.671875 168.332031 227.910156 169.773438 224.058594 169.855469 C 223.496094 167.050781 223.433594 163.417969 221.148438 161.539062 C 221.082031 161.175781 220.964844 160.816406 220.792969 160.492188 C 220.394531 159.652344 219.476562 159.910156 218.753906 159.636719 C 217.898438 159.308594 216.828125 158.886719 215.902344 158.585938 C 208.621094 156.207031 201.015625 158.5 193.832031 160.15625 C 191.027344 160.769531 188.140625 160.871094 185.363281 161.5625 C 180.101562 162.933594 174.992188 165.175781 170.675781 168.519531 C 168.410156 170.191406 166.5625 172.300781 164.707031 174.398438 C 162.453125 176.792969 160.277344 179.796875 160.171875 183.203125 C 160.203125 184.546875 160.339844 185.921875 160.851562 187.175781 C 161.308594 188.5625 162.269531 189.964844 162.042969 191.464844 C 161.507812 192.9375 160.269531 194.207031 158.890625 194.917969 C 157.457031 195.285156 156.140625 195.6875 154.753906 196.242188 C 153.160156 196.917969 151.402344 196.726562 149.722656 196.992188 C 147.386719 197.210938 145.066406 197.609375 142.746094 197.964844 C 140.507812 198.304688 138.261719 198.472656 136.007812 198.632812 C 133.609375 198.914062 130.910156 199.191406 128.902344 197.5625 C 131.578125 194.296875 134.179688 190.824219 136.65625 187.371094 Z M 207.710938 177.054688 C 207.023438 176.003906 205.585938 173.992188 204.175781 174.339844 C 203.09375 173.917969 201.925781 174.414062 200.835938 174.578125 C 198.910156 174.941406 197.011719 175.441406 195.101562 175.871094 C 191.960938 176.53125 188.828125 177.300781 185.78125 178.304688 C 183.183594 179.191406 176.570312 182.226562 175.203125 185.445312 C 174.152344 186.449219 174.285156 189.144531 174.363281 191.097656 C 173.640625 191.332031 172.929688 191.796875 172.253906 192 C 170.953125 192.425781 169.625 192.761719 168.355469 193.28125 C 166.457031 193.953125 164.628906 194.8125 162.75 195.539062 C 163.214844 194.652344 163.566406 193.707031 163.769531 192.753906 C 164.625 189.382812 161.601562 186.691406 161.832031 183.40625 C 162.433594 180.738281 164.917969 178.960938 166.757812 177.09375 C 169.457031 174.316406 172.722656 172.191406 176.003906 170.164062 C 187.472656 162.839844 197.117188 160.636719 210.613281 162.550781 C 213.332031 162.917969 215.976562 163.730469 218.640625 164.363281 C 218.785156 164.402344 218.917969 164.429688 219.050781 164.445312 C 219.730469 165.191406 220.753906 165.710938 220.859375 166.839844 C 221.207031 168.019531 221.214844 169.816406 221.574219 171.328125 C 221.367188 171.492188 221.164062 171.644531 220.957031 171.746094 C 219.234375 172.929688 217.636719 174.28125 215.910156 175.457031 C 214.289062 176.644531 212.5625 177.648438 210.691406 178.382812 C 209.851562 178.746094 209.015625 179.117188 208.164062 179.449219 C 208.199219 178.613281 208.058594 177.785156 207.710938 177.054688 Z M 205.59375 179.867188 C 204.046875 182.167969 199.652344 181.332031 197.214844 182.371094 C 195.179688 183.019531 193.089844 183.378906 191 183.78125 C 187.035156 184.765625 183.058594 185.800781 178.980469 186.148438 C 178.605469 186.152344 178.230469 186.128906 177.859375 186.070312 C 181.90625 183.457031 186.527344 181.738281 191.238281 180.800781 C 195.238281 180.09375 199.183594 179.128906 203.144531 178.273438 C 203.257812 178.378906 203.390625 178.457031 203.535156 178.496094 C 204.207031 178.957031 205.027344 179.234375 205.59375 179.867188 Z M 121.5625 210.769531 C 123.589844 207.765625 125.507812 204.660156 126.765625 201.25 C 127.683594 202.40625 129.050781 203.234375 130.703125 203.394531 C 132.746094 203.777344 134.730469 203.101562 136.71875 202.71875 C 138.851562 202.308594 141.039062 202.179688 143.210938 202.207031 C 146.886719 202.148438 150.621094 202.5 154.25 201.828125 C 155.320312 201.351562 156.40625 200.875 157.464844 200.355469 C 157.878906 200.636719 158.472656 200.394531 158.980469 200.375 C 161.574219 200.347656 163.949219 199.136719 166.34375 198.273438 C 169.289062 197.246094 172.253906 196.226562 175.097656 194.988281 C 175.386719 194.976562 175.632812 194.875 175.839844 194.71875 C 177.007812 194.71875 178.132812 195.175781 179.207031 195.605469 C 180.683594 196.160156 182.265625 196.347656 183.828125 196.464844 C 186.4375 196.410156 189.019531 195.785156 191.601562 195.421875 C 195.253906 194.75 198.886719 193.875 202.027344 191.789062 C 203.589844 190.550781 206.84375 189.375 206.4375 186.960938 C 206.199219 185.628906 205.1875 186.003906 204.542969 186.789062 C 203.910156 187.242188 203.199219 187.585938 202.527344 187.988281 C 199.664062 189.441406 196.601562 190.515625 193.445312 191.117188 C 191.523438 191.554688 189.566406 191.714844 187.613281 191.933594 C 186.0625 192.171875 184.5 192.367188 182.941406 192.074219 C 180.871094 191.988281 178.972656 190.816406 176.929688 190.691406 C 176.921875 190.089844 176.929688 189.492188 176.929688 188.894531 C 177.335938 188.996094 177.765625 189.050781 178.175781 189.074219 C 183.714844 188.839844 189.316406 189 194.785156 188.015625 C 196.269531 187.609375 197.71875 187.09375 199.183594 186.625 C 201.359375 186.0625 203.691406 185.71875 205.558594 184.378906 C 206.226562 183.933594 206.789062 183.300781 207.222656 182.570312 C 207.300781 182.761719 207.398438 182.933594 207.523438 183.085938 C 208.351562 183.824219 209.449219 182.746094 210.339844 182.554688 C 215.3125 180.933594 219.316406 177.464844 223.347656 174.265625 C 223.484375 174.195312 223.609375 174.105469 223.722656 174 C 223.851562 174.03125 223.992188 174.058594 224.140625 174.070312 C 225.652344 174.144531 227.097656 173.503906 228.566406 173.222656 C 231.164062 172.589844 233.738281 171.804688 236.226562 170.816406 C 236.570312 170.695312 236.824219 170.40625 236.992188 170.035156 C 237.742188 169.445312 238.082031 167.554688 237.828125 166.742188 C 237.640625 165.640625 237.234375 164.609375 236.894531 163.550781 C 236.511719 161.941406 236.4375 160.269531 235.902344 158.691406 C 234.585938 153.992188 232.390625 149.621094 229.992188 145.421875 C 231.414062 145.398438 232.839844 145.457031 234.257812 145.566406 C 237.71875 145.652344 241.222656 145.699219 244.585938 146.632812 C 242.8125 148.738281 242.25 151.570312 241.472656 154.144531 C 240.492188 157.195312 239.851562 160.554688 240.351562 163.75 C 240.703125 168.136719 240.457031 169.085938 242.523438 173.332031 C 243.546875 176.054688 245.902344 177.976562 246.902344 180.6875 C 247.773438 183.023438 248.570312 185.632812 249.046875 188.109375 C 249.144531 188.503906 249.203125 188.921875 249.25 189.339844 C 243.128906 189.355469 236.941406 191.074219 231.675781 194.226562 C 226.285156 197.996094 221.816406 202.589844 216.652344 206.683594 C 213.042969 208.683594 209.199219 210.371094 205.230469 211.527344 C 200.671875 212.773438 195.964844 213.25 191.328125 214.132812 C 183.671875 216.015625 175.761719 214.53125 167.980469 215.085938 C 162.324219 215.230469 156.859375 217.082031 151.1875 217.089844 C 148.699219 217.140625 146.257812 216.523438 143.769531 216.605469 C 141.265625 216.746094 138.761719 216.878906 136.261719 217.058594 C 132.707031 217.679688 129.195312 218.445312 125.578125 218.679688 C 123.003906 219.203125 120.410156 219.054688 117.832031 218.652344 C 119.015625 216 120.019531 213.238281 121.5625 210.769531 Z M 258.53125 195.222656 C 249.675781 196.886719 240.847656 198.996094 232.4375 202.28125 C 227.457031 204.304688 223.429688 208.046875 219.769531 211.890625 C 217.902344 213.753906 216.058594 215.6875 213.664062 216.882812 C 209.902344 218.957031 205.867188 220.753906 201.542969 221.160156 C 195.996094 221.585938 190.390625 221.066406 184.859375 221.820312 C 178.984375 222.566406 173.101562 224.128906 167.144531 223.5625 C 162.9375 223.050781 158.699219 223.769531 154.472656 223.574219 C 151.839844 223.628906 149.230469 224.042969 146.613281 224.300781 C 143.511719 224.613281 140.386719 224.515625 137.285156 224.867188 C 134.363281 225.15625 131.441406 224.839844 128.515625 224.878906 C 124.667969 224.769531 120.703125 225.359375 116.929688 224.457031 C 116.90625 223.957031 116.953125 223.082031 116.964844 222.160156 C 117.664062 222.273438 118.417969 222.128906 119.132812 222.171875 C 121.78125 222.304688 124.359375 221.640625 126.992188 221.515625 C 131.679688 221.5 136.367188 221.761719 141.046875 221.746094 C 143.449219 221.480469 145.859375 221.410156 148.273438 221.386719 C 150.144531 221.363281 151.992188 221.058594 153.851562 220.882812 C 157.878906 220.628906 161.929688 220.804688 165.957031 220.472656 C 170.332031 220.316406 174.617188 219.238281 178.90625 218.433594 C 182.660156 217.675781 186.5 217.492188 190.304688 217.140625 C 196.527344 217.019531 202.953125 217.179688 208.917969 215.148438 C 211.898438 213.921875 214.792969 212.390625 217.390625 210.460938 C 221.78125 206.539062 224.84375 201.035156 230.238281 198.300781 C 233.039062 196.625 236.5 196.003906 239.703125 195.5 C 242.945312 195.011719 246.179688 194.246094 249.460938 194.109375 C 249.683594 194.382812 250.011719 194.523438 250.464844 194.429688 C 251.371094 194.101562 252.347656 194.257812 253.285156 194.328125 C 255.085938 194.628906 256.90625 194.148438 258.707031 194.382812 C 258.671875 194.667969 258.636719 194.953125 258.53125 195.222656 Z M 227.96875 188.5 C 231.738281 189.351562 234.746094 185.0625 234.578125 181.621094 C 234.511719 180.554688 233.839844 178.140625 232.417969 178.605469 C 232.019531 177.449219 230.429688 177.558594 229.433594 177.683594 C 225.324219 178.574219 222.710938 187.523438 227.96875 188.5 Z M 231.613281 181.667969 C 231.703125 181.976562 231.949219 182.175781 232.136719 182.417969 C 231.78125 183.488281 230.652344 184.367188 229.542969 184.5 C 228.917969 184.460938 228.253906 184.355469 227.722656 184.007812 C 228.261719 181.601562 229.644531 181.808594 231.613281 181.667969 Z M 231.613281 181.667969 " fill-opacity="1" fill-rule="nonzero"/></g><g clip-path="url(#13158f4206)"><path fill="#297ed5" d="M 79.820312 185.757812 C 79.820312 186.339844 79.792969 186.921875 79.734375 187.5 C 79.679688 188.078125 79.59375 188.652344 79.480469 189.222656 C 79.367188 189.796875 79.226562 190.359375 79.058594 190.914062 C 78.886719 191.472656 78.691406 192.019531 78.46875 192.554688 C 78.246094 193.09375 78 193.617188 77.722656 194.132812 C 77.449219 194.644531 77.152344 195.144531 76.828125 195.625 C 76.503906 196.109375 76.160156 196.578125 75.789062 197.027344 C 75.421875 197.476562 75.03125 197.90625 74.621094 198.316406 C 74.207031 198.730469 73.777344 199.121094 73.328125 199.488281 C 72.878906 199.855469 72.414062 200.203125 71.929688 200.527344 C 71.445312 200.847656 70.945312 201.148438 70.433594 201.421875 C 69.921875 201.695312 69.394531 201.945312 68.859375 202.167969 C 68.320312 202.390625 67.773438 202.585938 67.21875 202.753906 C 66.660156 202.921875 66.097656 203.066406 65.527344 203.179688 C 64.957031 203.292969 64.382812 203.378906 63.800781 203.433594 C 63.222656 203.492188 62.644531 203.519531 62.0625 203.519531 C 61.480469 203.519531 60.898438 203.492188 60.320312 203.433594 C 59.742188 203.378906 59.167969 203.292969 58.597656 203.179688 C 58.027344 203.066406 57.464844 202.921875 56.90625 202.753906 C 56.351562 202.585938 55.804688 202.390625 55.265625 202.167969 C 54.726562 201.945312 54.203125 201.695312 53.691406 201.421875 C 53.175781 201.148438 52.679688 200.847656 52.195312 200.527344 C 51.710938 200.203125 51.246094 199.855469 50.796875 199.488281 C 50.34375 199.121094 49.914062 198.730469 49.503906 198.316406 C 49.09375 197.90625 48.703125 197.476562 48.332031 197.027344 C 47.964844 196.578125 47.617188 196.109375 47.296875 195.625 C 46.972656 195.144531 46.671875 194.644531 46.398438 194.132812 C 46.125 193.617188 45.875 193.09375 45.652344 192.554688 C 45.429688 192.019531 45.234375 191.472656 45.066406 190.914062 C 44.898438 190.359375 44.757812 189.796875 44.644531 189.222656 C 44.53125 188.652344 44.445312 188.078125 44.386719 187.5 C 44.332031 186.921875 44.300781 186.339844 44.300781 185.757812 C 44.300781 185.179688 44.332031 184.597656 44.386719 184.019531 C 44.445312 183.441406 44.53125 182.867188 44.644531 182.296875 C 44.757812 181.722656 44.898438 181.160156 45.066406 180.605469 C 45.234375 180.046875 45.429688 179.5 45.652344 178.964844 C 45.875 178.425781 46.125 177.902344 46.398438 177.386719 C 46.671875 176.875 46.972656 176.375 47.296875 175.894531 C 47.617188 175.410156 47.964844 174.941406 48.332031 174.492188 C 48.703125 174.042969 49.09375 173.613281 49.503906 173.203125 C 49.914062 172.789062 50.34375 172.398438 50.796875 172.03125 C 51.246094 171.664062 51.710938 171.316406 52.195312 170.992188 C 52.679688 170.667969 53.175781 170.371094 53.691406 170.097656 C 54.203125 169.824219 54.726562 169.574219 55.265625 169.351562 C 55.804688 169.128906 56.351562 168.933594 56.90625 168.765625 C 57.464844 168.597656 58.027344 168.453125 58.597656 168.339844 C 59.167969 168.226562 59.742188 168.140625 60.320312 168.085938 C 60.898438 168.027344 61.480469 168 62.0625 168 C 62.644531 168 63.222656 168.027344 63.800781 168.085938 C 64.382812 168.140625 64.957031 168.226562 65.527344 168.339844 C 66.097656 168.453125 66.660156 168.597656 67.21875 168.765625 C 67.773438 168.933594 68.320312 169.128906 68.859375 169.351562 C 69.394531 169.574219 69.921875 169.824219 70.433594 170.097656 C 70.945312 170.371094 71.445312 170.667969 71.929688 170.992188 C 72.414062 171.316406 72.878906 171.664062 73.328125 172.03125 C 73.777344 172.398438 74.207031 172.789062 74.621094 173.203125 C 75.03125 173.613281 75.421875 174.042969 75.789062 174.492188 C 76.160156 174.941406 76.503906 175.410156 76.828125 175.894531 C 77.152344 176.375 77.449219 176.875 77.722656 177.386719 C 78 177.902344 78.246094 178.425781 78.46875 178.964844 C 78.691406 179.5 78.886719 180.046875 79.058594 180.605469 C 79.226562 181.160156 79.367188 181.722656 79.480469 182.296875 C 79.59375 182.867188 79.679688 183.441406 79.734375 184.019531 C 79.792969 184.597656 79.820312 185.179688 79.820312 185.757812 Z M 79.820312 185.757812 " fill-opacity="1" fill-rule="nonzero"/></g><g clip-path="url(#20ea79e796)"><path fill="#297ed5" d="M 331.019531 185.757812 C 331.019531 186.339844 330.992188 186.921875 330.933594 187.5 C 330.878906 188.078125 330.792969 188.652344 330.679688 189.222656 C 330.566406 189.796875 330.421875 190.359375 330.253906 190.914062 C 330.085938 191.472656 329.890625 192.019531 329.667969 192.554688 C 329.445312 193.09375 329.195312 193.617188 328.921875 194.132812 C 328.648438 194.644531 328.347656 195.144531 328.027344 195.625 C 327.703125 196.109375 327.355469 196.578125 326.988281 197.027344 C 326.621094 197.476562 326.230469 197.90625 325.816406 198.316406 C 325.40625 198.730469 324.976562 199.121094 324.527344 199.488281 C 324.078125 199.855469 323.609375 200.203125 323.125 200.527344 C 322.644531 200.847656 322.144531 201.148438 321.632812 201.421875 C 321.117188 201.695312 320.59375 201.945312 320.054688 202.167969 C 319.519531 202.390625 318.972656 202.585938 318.414062 202.753906 C 317.859375 202.921875 317.296875 203.066406 316.722656 203.179688 C 316.152344 203.292969 315.578125 203.378906 315 203.433594 C 314.421875 203.492188 313.839844 203.519531 313.257812 203.519531 C 312.679688 203.519531 312.097656 203.492188 311.519531 203.433594 C 310.941406 203.378906 310.367188 203.292969 309.796875 203.179688 C 309.222656 203.066406 308.660156 202.921875 308.105469 202.753906 C 307.546875 202.585938 307 202.390625 306.464844 202.167969 C 305.925781 201.945312 305.402344 201.695312 304.886719 201.421875 C 304.375 201.148438 303.875 200.847656 303.394531 200.527344 C 302.910156 200.203125 302.441406 199.855469 301.992188 199.488281 C 301.542969 199.121094 301.113281 198.730469 300.703125 198.316406 C 300.289062 197.90625 299.898438 197.476562 299.53125 197.027344 C 299.164062 196.578125 298.816406 196.109375 298.492188 195.625 C 298.167969 195.144531 297.871094 194.644531 297.597656 194.132812 C 297.324219 193.617188 297.074219 193.09375 296.851562 192.554688 C 296.628906 192.019531 296.433594 191.472656 296.265625 190.914062 C 296.097656 190.359375 295.953125 189.796875 295.839844 189.222656 C 295.726562 188.652344 295.640625 188.078125 295.585938 187.5 C 295.527344 186.921875 295.5 186.339844 295.5 185.757812 C 295.5 185.179688 295.527344 184.597656 295.585938 184.019531 C 295.640625 183.441406 295.726562 182.867188 295.839844 182.296875 C 295.953125 181.722656 296.097656 181.160156 296.265625 180.605469 C 296.433594 180.046875 296.628906 179.5 296.851562 178.964844 C 297.074219 178.425781 297.324219 177.902344 297.597656 177.386719 C 297.871094 176.875 298.167969 176.375 298.492188 175.894531 C 298.816406 175.410156 299.164062 174.941406 299.53125 174.492188 C 299.898438 174.042969 300.289062 173.613281 300.703125 173.203125 C 301.113281 172.789062 301.542969 172.398438 301.992188 172.03125 C 302.441406 171.664062 302.910156 171.316406 303.394531 170.992188 C 303.875 170.667969 304.375 170.371094 304.886719 170.097656 C 305.402344 169.824219 305.925781 169.574219 306.464844 169.351562 C 307 169.128906 307.546875 168.933594 308.105469 168.765625 C 308.660156 168.597656 309.222656 168.453125 309.796875 168.339844 C 310.367188 168.226562 310.941406 168.140625 311.519531 168.085938 C 312.097656 168.027344 312.679688 168 313.257812 168 C 313.839844 168 314.421875 168.027344 315 168.085938 C 315.578125 168.140625 316.152344 168.226562 316.722656 168.339844 C 317.296875 168.453125 317.859375 168.597656 318.414062 168.765625 C 318.972656 168.933594 319.519531 169.128906 320.054688 169.351562 C 320.59375 169.574219 321.117188 169.824219 321.632812 170.097656 C 322.144531 170.371094 322.644531 170.667969 323.125 170.992188 C 323.609375 171.316406 324.078125 171.664062 324.527344 172.03125 C 324.976562 172.398438 325.40625 172.789062 325.816406 173.203125 C 326.230469 173.613281 326.621094 174.042969 326.988281 174.492188 C 327.355469 174.941406 327.703125 175.410156 328.027344 175.894531 C 328.347656 176.375 328.648438 176.875 328.921875 177.386719 C 329.195312 177.902344 329.445312 178.425781 329.667969 178.964844 C 329.890625 179.5 330.085938 180.046875 330.253906 180.605469 C 330.421875 181.160156 330.566406 181.722656 330.679688 182.296875 C 330.792969 182.867188 330.878906 183.441406 330.933594 184.019531 C 330.992188 184.597656 331.019531 185.179688 331.019531 185.757812 Z M 331.019531 185.757812 " fill-opacity="1" fill-rule="nonzero"/></g></svg>